<svg width="10" height="10" viewBox="0 0 10 10" xmlns="http://www.w3.org/2000/svg">
<path clip-rule="evenodd" d="M9.42052 8.13934L6.11379 4.81405L9.43908 1.50732C9.74557 1.20255 9.7464 0.70791 9.44218 0.401983C9.13796 0.0960569 8.64332 0.0941198 8.33684 0.39889L5.01155 3.70562L1.70482 0.38033C1.4006 0.074403 0.905963 0.0724658 0.599481 0.377236C0.293 0.682007 0.292169 1.17665 0.596388 1.48257L3.90312 4.80786L0.577828 8.1146C0.271347 8.41937 0.270515 8.91401 0.574734 9.21993C0.878953 9.52586 1.37359 9.5278 1.68007 9.22303L5.00536 5.91629L8.31209 9.24159C8.61631 9.54751 9.11095 9.54945 9.41743 9.24468C9.72391 8.93991 9.72474 8.44527 9.42052 8.13934Z" fill="#00AC4E"/>
</svg>
