<svg width="18" height="23" viewBox="0 0 18 23" xmlns="http://www.w3.org/2000/svg">
<path clip-rule="evenodd" d="M11.0674 5.75029C11.0674 4.42744 9.99156 3.35164 8.66871 3.35164C7.34585 3.35164 6.27006 4.42744 6.27006 5.75029C6.27006 7.07315 7.34585 8.14894 8.66871 8.14894C9.99156 8.14894 11.0674 7.07315 11.0674 5.75029ZM13.466 5.75042C13.466 8.39613 11.3144 10.5477 8.66871 10.5477C6.023 10.5477 3.87141 8.39613 3.87141 5.75042C3.87141 3.10471 6.023 0.953125 8.66871 0.953125C11.3144 0.953125 13.466 3.10471 13.466 5.75042ZM0.273438 21.3416C0.273438 16.7122 4.04052 12.9464 8.66871 12.9464C13.2969 12.9464 17.064 16.7122 17.064 21.3416C17.064 22.0037 16.5279 22.541 15.8647 22.541C15.2014 22.541 14.6653 22.0037 14.6653 21.3416C14.6653 18.0351 11.9752 15.345 8.66871 15.345C5.36217 15.345 2.67209 18.0351 2.67209 21.3416C2.67209 22.0037 2.13599 22.541 1.47276 22.541C0.809536 22.541 0.273438 22.0037 0.273438 21.3416Z" fill="#C6C6C6"/>
</svg>
