<svg width="12" height="16" viewBox="0 0 12 16" xmlns="http://www.w3.org/2000/svg">
<path d="M7.66664 3.83334C7.66664 2.91418 6.91914 2.16668 5.99998 2.16668C5.08081 2.16668 4.33331 2.91418 4.33331 3.83334C4.33331 4.75251 5.08081 5.50001 5.99998 5.50001C6.91914 5.50001 7.66664 4.75251 7.66664 3.83334ZM9.33332 3.83333C9.33332 5.67167 7.83832 7.16667 5.99999 7.16667C4.16166 7.16667 2.66666 5.67167 2.66666 3.83333C2.66666 1.995 4.16166 0.5 5.99999 0.5C7.83832 0.5 9.33332 1.995 9.33332 3.83333ZM0.166656 14.6667C0.166656 11.45 2.78416 8.83333 5.99999 8.83333C9.21582 8.83333 11.8333 11.45 11.8333 14.6667C11.8333 15.1267 11.4608 15.5 11 15.5C10.5392 15.5 10.1667 15.1267 10.1667 14.6667C10.1667 12.3692 8.29749 10.5 5.99999 10.5C3.70249 10.5 1.83332 12.3692 1.83332 14.6667C1.83332 15.1267 1.46082 15.5 0.99999 15.5C0.539157 15.5 0.166656 15.1267 0.166656 14.6667Z" fill="white"/>
</svg>
