<svg width="16" height="16" viewBox="0 0 16 16" xmlns="http://www.w3.org/2000/svg">
<path clip-rule="evenodd" d="M3.95013 2.00001C2.87463 2.00001 2.00013 2.87451 2.00013 3.95001C2.00013 9.491 6.50838 14 12.0501 14C13.1249 14 14.0001 13.1255 14.0001 12.05C14.0001 11.9668 13.9949 11.885 13.9844 11.804L10.5194 11.009C10.4504 11.141 10.3746 11.2843 10.3056 11.4178C9.96363 12.0703 9.71613 12.5443 9.08463 12.29C6.60513 11.42 4.58088 9.395 3.69963 6.8855C3.43188 6.29675 3.94188 6.02976 4.58838 5.69226C4.71963 5.62326 4.86138 5.54901 4.99113 5.48151L4.19613 2.01576C4.11288 2.00526 4.03188 2.00001 3.95013 2.00001ZM12.0501 15.5C5.68112 15.5 0.500122 10.319 0.500122 3.95C0.500122 2.04725 2.04737 0.5 3.95012 0.5C4.14512 0.5 4.33787 0.5165 4.52462 0.54875C4.70687 0.578 4.88987 0.6245 5.06837 0.686C5.31212 0.77075 5.49587 0.9755 5.55362 1.2275L6.58037 5.7005C6.63737 5.9465 6.56612 6.2045 6.39062 6.3875C6.28862 6.494 6.28637 6.49625 5.35637 6.983C6.10937 8.6135 7.41812 9.91775 9.01562 10.6453C9.50312 9.7145 9.50612 9.7115 9.61262 9.6095C9.79562 9.434 10.0551 9.36575 10.2996 9.41975L14.7734 10.4465C15.0246 10.5043 15.2294 10.6873 15.3134 10.931C15.3749 11.108 15.4214 11.291 15.4521 11.4793C15.4836 11.6645 15.5001 11.8565 15.5001 12.05C15.5001 13.9528 13.9521 15.5 12.0501 15.5Z" fill="#00ac4e"/>
</svg>
