<svg width="17" height="16" viewBox="0 0 17 16" xmlns="http://www.w3.org/2000/svg">
<path clip-rule="evenodd" d="M12.6523 9.62351H6.30395L4.93978 4.64198H15.1523L12.6523 9.62351ZM16.569 3.76857C16.2631 3.2754 15.7331 2.98149 15.1515 2.98149H4.48481L3.97065 1.10262C3.87148 0.74146 3.54231 0.490723 3.16648 0.490723H1.49981C1.03898 0.490723 0.666481 0.862677 0.666481 1.32098C0.666481 1.77928 1.03898 2.15123 1.49981 2.15123H2.52981L4.86231 10.6721C4.96148 11.0333 5.29065 11.284 5.66648 11.284H13.1665C13.4823 11.284 13.7706 11.1064 13.9123 10.8249L16.6423 5.38424C16.9031 4.86533 16.8748 4.26174 16.569 3.76857ZM5.25 12.9445C4.56 12.9445 4 13.5016 4 14.1899C4 14.8782 4.56 15.4353 5.25 15.4353C5.94 15.4353 6.5 14.8782 6.5 14.1899C6.5 13.5016 5.94 12.9445 5.25 12.9445ZM12.3333 14.1899C12.3333 13.5016 12.8933 12.9445 13.5833 12.9445C14.2733 12.9445 14.8333 13.5016 14.8333 14.1899C14.8333 14.8782 14.2733 15.4353 13.5833 15.4353C12.8933 15.4353 12.3333 14.8782 12.3333 14.1899Z" fill="#00ac4e"/>
</svg>
