<svg width="27" height="32" viewBox="0 0 27 32" fill="none" xmlns="http://www.w3.org/2000/svg">
<path d="M7.80661 15.6197C12.1171 15.6197 15.6132 12.1235 15.6132 7.81308C15.6132 3.50264 12.1171 0 7.80661 0C3.49617 0 0 3.49617 0 7.80661C0 12.1171 3.49617 15.6197 7.80661 15.6197ZM5.07947 10.8957C5.15056 10.6372 5.22164 10.3851 5.29919 10.1266C5.38967 9.82935 5.47368 9.79704 5.7451 9.93922C6.21039 10.1783 6.70154 10.314 7.21853 10.3787C7.54812 10.4174 7.8777 10.3851 8.18143 10.2494C8.75659 9.99738 8.84706 9.33175 8.36238 8.93108C8.19436 8.79537 8.00695 8.69197 7.81308 8.60795C7.30901 8.38823 6.78555 8.22021 6.30733 7.93586C5.5383 7.47703 5.04716 6.83725 5.10532 5.9002C5.16994 4.84036 5.77095 4.17473 6.74031 3.82576C7.14098 3.67712 7.14098 3.68358 7.14745 3.26353C7.14745 3.12135 7.14745 2.97918 7.14745 2.83701C7.15391 2.52035 7.21207 2.46865 7.52227 2.45572C7.6192 2.45572 7.71614 2.45572 7.81308 2.45572C8.48517 2.45572 8.48517 2.45572 8.48517 3.12782C8.48517 3.59957 8.48517 3.60604 8.95693 3.67712C9.31882 3.73528 9.66133 3.83868 9.99738 3.98732C10.1848 4.07133 10.2494 4.20058 10.1977 4.39445C10.1137 4.68526 10.0362 4.97607 9.93921 5.26042C9.84874 5.53184 9.76473 5.57061 9.50623 5.44783C8.98278 5.19579 8.43347 5.08593 7.85185 5.11824C7.69675 5.12471 7.55458 5.14409 7.41241 5.20872C6.9148 5.42844 6.83079 5.97775 7.25731 6.32026C7.47057 6.49474 7.71614 6.61753 7.97464 6.72093C8.41408 6.90187 8.85999 7.08282 9.28651 7.31547C10.6242 8.05865 10.9861 9.73888 10.0426 10.8827C9.7001 11.2963 9.26066 11.5742 8.7372 11.7164C8.51102 11.781 8.40762 11.8973 8.42054 12.13C8.43347 12.3626 8.42054 12.5888 8.42054 12.8215C8.42054 13.0283 8.31715 13.1381 8.11035 13.1446C7.86478 13.151 7.61274 13.151 7.36717 13.1446C7.14745 13.1381 7.04405 13.0153 7.04405 12.8021C7.04405 12.634 7.04405 12.466 7.03758 12.298C7.03112 11.9296 7.02466 11.9103 6.66276 11.8521C6.20393 11.781 5.75802 11.6776 5.33797 11.4708C5.02131 11.3222 4.989 11.2382 5.07947 10.8957Z" fill="#00AC4E"/>
<path d="M25.3196 16.2723H24.4084C23.8074 14.4305 22.6312 12.7955 21.0609 11.5289C21.0609 11.4707 21.048 11.4061 21.035 11.3479C20.7054 10.1911 21.1126 9.13775 21.5843 8.38165C21.9139 7.85173 21.4874 7.17317 20.867 7.25072C19.4776 7.42521 18.5211 7.93574 17.862 8.5109C17.4096 8.9051 17.0865 9.43502 16.9443 10.0231C15.9491 14.1461 12.2332 17.2158 7.80644 17.2158C5.65445 17.2158 3.67694 16.492 2.09365 15.2771C1.54434 16.4661 1.24707 17.7651 1.24707 19.1287C1.24707 19.8654 1.33754 20.5827 1.50557 21.2742C1.50557 21.2742 1.50557 21.2871 1.51203 21.3065C1.68652 22.0238 1.95148 22.7153 2.28752 23.368C2.73343 24.3309 3.37967 25.4554 4.27149 26.3666C5.55751 27.6914 5.77723 29.3328 5.80955 30.0437V30.3474C5.80955 30.3604 5.80955 30.3733 5.80955 30.3862C5.80955 30.3927 5.80955 30.3927 5.80955 30.3927C5.8354 30.7417 6.1262 31.0195 6.48164 31.0195H10.5659C10.9343 31.0195 11.238 30.7223 11.238 30.3474V29.3393C11.8325 29.4169 12.44 29.4621 13.0539 29.4621C13.5386 29.4621 14.0104 29.4362 14.4821 29.3845V30.3474C14.4821 30.7158 14.7794 31.0195 15.1542 31.0195H19.2514C19.6198 31.0195 19.9235 30.7223 19.9235 30.3474V29.3393C19.93 29.0033 20.0463 27.6655 21.3129 26.5217C21.3582 26.4829 21.4034 26.4441 21.4486 26.4054C21.4615 26.3924 21.4745 26.386 21.4874 26.3731C22.8962 25.1193 23.9367 23.5554 24.473 21.8106H25.3325C26.0176 21.8106 26.5733 21.2548 26.5733 20.5698V17.5131C26.5604 16.828 26.0046 16.2723 25.3196 16.2723ZM20.2078 16.492C19.6456 16.492 19.1932 16.0396 19.1932 15.4774C19.1932 14.9152 19.6456 14.4628 20.2078 14.4628C20.7701 14.4628 21.2224 14.9152 21.2224 15.4774C21.2224 16.0396 20.7701 16.492 20.2078 16.492Z" fill="#00AC4E"/>
</svg>
