<svg width="15" height="15" viewBox="0 0 15 15" fill="none" xmlns="http://www.w3.org/2000/svg">
<path fill-rule="evenodd" clip-rule="evenodd" d="M9.92933 8.76729H5.47261L4.51493 5.25715H11.6844L9.92933 8.76729ZM12.6789 4.64171C12.4642 4.2942 12.0921 4.0871 11.6838 4.0871H4.19547L3.83451 2.76319C3.7649 2.50871 3.53381 2.33203 3.26997 2.33203H2.09992C1.7764 2.33203 1.51489 2.59412 1.51489 2.91706C1.51489 3.23999 1.7764 3.50208 2.09992 3.50208H2.82301L4.46049 9.50618C4.53011 9.76067 4.76119 9.93735 5.02504 9.93735H10.2903C10.512 9.93735 10.7144 9.81215 10.8139 9.61383L12.7304 5.78016C12.9135 5.41452 12.8936 4.98921 12.6789 4.64171ZM4.73264 11.1074C4.24824 11.1074 3.85511 11.4999 3.85511 11.9849C3.85511 12.4699 4.24824 12.8625 4.73264 12.8625C5.21704 12.8625 5.61018 12.4699 5.61018 11.9849C5.61018 11.4999 5.21704 11.1074 4.73264 11.1074ZM9.70534 11.9849C9.70534 11.4999 10.0985 11.1074 10.5829 11.1074C11.0673 11.1074 11.4604 11.4999 11.4604 11.9849C11.4604 12.4699 11.0673 12.8625 10.5829 12.8625C10.0985 12.8625 9.70534 12.4699 9.70534 11.9849Z" fill="white"/>
<mask id="mask0" mask-type="alpha" maskUnits="userSpaceOnUse" x="1" y="2" width="12" height="11">
<path fill-rule="evenodd" clip-rule="evenodd" d="M9.92933 8.76729H5.47261L4.51493 5.25715H11.6844L9.92933 8.76729ZM12.6789 4.64171C12.4642 4.2942 12.0921 4.0871 11.6838 4.0871H4.19547L3.83451 2.76319C3.7649 2.50871 3.53381 2.33203 3.26997 2.33203H2.09992C1.7764 2.33203 1.51489 2.59412 1.51489 2.91706C1.51489 3.23999 1.7764 3.50208 2.09992 3.50208H2.82301L4.46049 9.50618C4.53011 9.76067 4.76119 9.93735 5.02504 9.93735H10.2903C10.512 9.93735 10.7144 9.81215 10.8139 9.61383L12.7304 5.78016C12.9135 5.41452 12.8936 4.98921 12.6789 4.64171ZM4.73264 11.1074C4.24824 11.1074 3.85511 11.4999 3.85511 11.9849C3.85511 12.4699 4.24824 12.8625 4.73264 12.8625C5.21704 12.8625 5.61018 12.4699 5.61018 11.9849C5.61018 11.4999 5.21704 11.1074 4.73264 11.1074ZM9.70534 11.9849C9.70534 11.4999 10.0985 11.1074 10.5829 11.1074C11.0673 11.1074 11.4604 11.4999 11.4604 11.9849C11.4604 12.4699 11.0673 12.8625 10.5829 12.8625C10.0985 12.8625 9.70534 12.4699 9.70534 11.9849Z" fill="white"/>
</mask>
<g mask="url(#mask0)">
<rect x="0.344971" y="0.577148" width="14.0406" height="14.0406" fill="white"/>
</g>
</svg>
