<svg width="27" height="21" viewBox="0 0 27 21" fill="none" xmlns="http://www.w3.org/2000/svg">
<path d="M22.0281 16.1296C20.7067 16.1296 19.6318 17.206 19.6318 18.5295C19.6318 19.8535 20.7067 20.9305 22.0281 20.9305C23.35 20.9305 24.4247 19.8535 24.4247 18.5295C24.4247 17.206 23.35 16.1296 22.0281 16.1296Z" fill="#00AC4E"/>
<path d="M5.86957 16.1296C4.54757 16.1296 3.47266 17.206 3.47266 18.5295C3.47266 19.8535 4.54757 20.9305 5.86957 20.9305C7.19084 20.9305 8.26575 19.8535 8.26575 18.5295C8.26584 17.206 7.19093 16.1296 5.86957 16.1296Z" fill="#00AC4E"/>
<path d="M23.3802 6.04763C23.2538 5.66663 22.8972 5.40918 22.4955 5.40918H21.3628V9.39354H24.4886L23.3802 6.04763Z" fill="#00AC4E"/>
<path d="M26.3828 10.885H21.3628V14.6966C21.5791 14.6596 21.8014 14.6387 22.0281 14.6387C24.0311 14.6387 25.6849 16.1633 25.8931 18.1137H26.0685C26.5828 18.1137 27.0001 17.6965 27.0001 17.1816V11.7613C27.0001 11.3568 26.7422 11.0143 26.3828 10.885Z" fill="#00AC4E"/>
<path d="M19.8363 1.00201C19.8363 0.487097 19.419 0.0698242 18.9046 0.0698242H0.931545C0.417273 0.0698242 0 0.487006 0 1.00201V17.1814C0 17.6963 0.417273 18.1135 0.931545 18.1135H2.00427C2.21255 16.1631 3.86627 14.6385 5.86964 14.6385C7.87227 14.6385 9.52573 16.1631 9.734 18.1135H17.0908H18.1635C18.289 16.9392 18.9382 15.9205 19.8723 15.2946L19.8363 1.00201Z" fill="#00AC4E"/>
</svg>
