<svg width="19" height="19" viewBox="0 0 19 19" fill="none" xmlns="http://www.w3.org/2000/svg">
<path fill-rule="evenodd" clip-rule="evenodd" d="M9.44167 12.5888C9.26227 12.5888 9.08367 12.5282 8.93811 12.4063L4.21726 8.47222C3.88365 8.19448 3.83802 7.698 4.11655 7.3644C4.39429 7.03079 4.88998 6.98594 5.22438 7.26369L9.45032 10.7854L13.6692 7.39036C14.0075 7.11813 14.5032 7.17163 14.7754 7.50996C15.0477 7.84828 14.9942 8.34319 14.6558 8.61621L9.935 12.4149C9.79101 12.5306 9.61634 12.5888 9.44167 12.5888Z" fill="black"/>
<mask id="mask0" mask-type="alpha" maskUnits="userSpaceOnUse" x="3" y="7" width="12" height="6">
<path fill-rule="evenodd" clip-rule="evenodd" d="M9.44167 12.5888C9.26227 12.5888 9.08367 12.5282 8.93811 12.4063L4.21726 8.47222C3.88365 8.19448 3.83802 7.698 4.11655 7.3644C4.39429 7.03079 4.88998 6.98594 5.22438 7.26369L9.45032 10.7854L13.6692 7.39036C14.0075 7.11813 14.5032 7.17163 14.7754 7.50996C15.0477 7.84828 14.9942 8.34319 14.6558 8.61621L9.935 12.4149C9.79101 12.5306 9.61634 12.5888 9.44167 12.5888Z" fill="white"/>
</mask>
<g mask="url(#mask0)">
<rect width="18.8834" height="18.8834" fill="#00AC4E"/>
</g>
</svg>
