<svg width="6" height="5" viewBox="0 0 6 5" xmlns="http://www.w3.org/2000/svg">
<path clip-rule="evenodd" d="M4.96583 3.9744L3.47572 2.47593L4.97419 0.985813C5.1123 0.848474 5.11268 0.625574 4.97559 0.487715C4.8385 0.349855 4.6156 0.348982 4.47749 0.486321L2.97901 1.97643L1.4889 0.477957C1.35181 0.340097 1.12891 0.339224 0.990801 0.476563C0.852692 0.613901 0.852317 0.836801 0.989407 0.974661L2.47952 2.47314L0.981043 3.96325C0.842934 4.10059 0.842559 4.32349 0.979649 4.46135C1.11674 4.59921 1.33964 4.60008 1.47775 4.46274L2.97622 2.97263L4.46634 4.47111C4.60343 4.60897 4.82632 4.60984 4.96443 4.4725C5.10254 4.33516 5.10292 4.11226 4.96583 3.9744Z" fill="#C6C6C6"/>
</svg>
