<svg width="33" height="25" viewBox="0 0 33 25" fill="none" xmlns="http://www.w3.org/2000/svg">
<path d="M29.2979 4.38888H28.5853V3.67625C28.5853 1.99861 27.2205 0.633789 25.5428 0.633789H3.70403C2.02638 0.633789 0.66156 1.99866 0.66156 3.67625V17.9704C0.66156 19.648 2.02643 21.0129 3.70403 21.0129H4.41665V21.7255C4.41665 23.4032 5.78153 24.768 7.45912 24.768H29.2978C30.9755 24.768 32.3404 23.4032 32.3404 21.7255V7.43134C32.3403 5.75369 30.9755 4.38888 29.2979 4.38888ZM30.0985 21.7255C30.0985 22.1676 29.74 22.5261 29.2979 22.5261H7.45912C7.01693 22.5261 6.65847 22.1676 6.65847 21.7255V21.0128V19.8919V18.771V7.43134C6.65847 6.9891 7.01693 6.63069 7.45912 6.63069H26.3434H27.4643H28.5853H29.2979C29.7401 6.63069 30.0985 6.98915 30.0985 7.43134V21.7255H30.0985ZM2.90338 17.9704V3.67625C2.90338 3.23406 3.26184 2.8756 3.70403 2.8756H25.5428C25.985 2.8756 26.3434 3.23406 26.3434 3.67625V4.38888H7.45912C5.78153 4.38888 4.41665 5.75375 4.41665 7.43134V18.771H3.70408C3.26184 18.771 2.90338 18.4126 2.90338 17.9704Z" fill="#00AC4E"/>
<path d="M29.2978 24.7939H7.45905C5.76701 24.7939 4.39042 23.4173 4.39042 21.7253V21.0388H3.70401C2.01197 21.0388 0.635376 19.6622 0.635376 17.9702V3.67605C0.635376 1.98401 2.01197 0.607422 3.70401 0.607422H25.5428C27.2348 0.607422 28.6114 1.98401 28.6114 3.67605V4.36251H29.2979C30.9899 4.36251 32.3665 5.7391 32.3665 7.43114V21.7253C32.3664 23.4173 30.9899 24.7939 29.2978 24.7939ZM3.70401 0.659699C2.0408 0.659699 0.687706 2.01285 0.687706 3.67605V17.9702C0.687706 19.6334 2.0408 20.9865 3.70401 20.9865H4.4428V21.7253C4.4428 23.3885 5.7959 24.7416 7.4591 24.7416H29.2978C30.961 24.7416 32.3142 23.3885 32.3142 21.7253V7.43114C32.3142 5.76794 30.9611 4.41484 29.2979 4.41484H28.5591V3.67605C28.5591 2.01285 27.206 0.659752 25.5428 0.659752H3.70401V0.659699ZM29.2979 22.5521H7.4591C7.0032 22.5521 6.63229 22.1812 6.63229 21.7253V7.43114C6.63229 6.97524 7.0032 6.60432 7.4591 6.60432H29.2979C29.7538 6.60432 30.1247 6.97524 30.1247 7.43114V21.7253C30.1246 22.1812 29.7538 22.5521 29.2979 22.5521ZM7.4591 6.65665C7.03204 6.65665 6.68462 7.00413 6.68462 7.43114V21.7253C6.68462 22.1523 7.03204 22.4997 7.4591 22.4997H29.2979C29.7249 22.4997 30.0723 22.1523 30.0723 21.7253V7.43114C30.0723 7.00407 29.7249 6.65665 29.2979 6.65665H7.4591ZM4.4428 18.797H3.70406C3.24816 18.797 2.87719 18.4261 2.87719 17.9702V3.67605C2.87719 3.22015 3.24811 2.84924 3.70401 2.84924H25.5428C25.9987 2.84924 26.3696 3.22015 26.3696 3.67605V4.41484H7.4591C5.7959 4.41484 4.4428 5.76794 4.4428 7.43114V18.797ZM3.70401 2.90151C3.27694 2.90151 2.92952 3.24893 2.92952 3.676V17.9702C2.92952 18.3972 3.27699 18.7447 3.70406 18.7447H4.39052V7.43114C4.39052 5.7391 5.76712 4.36251 7.45915 4.36251H26.3173V3.67605C26.3173 3.24898 25.9699 2.90157 25.5429 2.90157H3.70401V2.90151Z" fill="#00AC4E"/>
<path d="M26.9069 19.2061L26.1692 18.4684L22.5976 14.8968C22.2849 14.5841 21.778 14.5841 21.4653 14.8968L19.4358 16.9263L15.6445 13.1349C15.3318 12.8222 14.8248 12.8222 14.5122 13.1349L8.87631 18.7708L8.44092 19.2061C8.25411 19.393 8.17901 19.6491 8.21538 19.8917C8.23992 20.0552 8.31502 20.2126 8.44092 20.3385L8.89389 20.7914C9.01326 20.9107 9.16098 20.9844 9.31536 21.0126C9.41096 21.0301 9.50908 21.0301 9.60464 21.0126C9.75906 20.9844 9.90679 20.9108 10.0262 20.7914L10.9258 19.8917L12.0467 18.7708L14.5121 16.3054C14.8248 15.9927 15.3318 15.9927 15.6444 16.3054L18.1098 18.7708L19.2307 19.8917L20.1304 20.7914C20.2498 20.9107 20.3975 20.9844 20.5519 21.0126C20.6475 21.0301 20.7456 21.0301 20.8411 21.0126C20.9956 20.9844 21.1432 20.9108 21.2627 20.7914L21.7156 20.3385C21.8414 20.2126 21.9166 20.0552 21.9411 19.8917C21.9775 19.6491 21.9025 19.393 21.7156 19.2061L21.2802 18.7708L21.0211 18.5116L22.0314 17.5011L23.3011 18.7708L24.422 19.8917L25.3216 20.7914C25.4345 20.9041 25.5727 20.976 25.7178 21.0074C25.908 21.0486 26.1101 21.0199 26.2835 20.9213C26.3445 20.8866 26.402 20.8434 26.454 20.7914L26.9069 20.3385C27.2005 20.0449 27.2184 19.5801 26.9607 19.2656C26.9439 19.2451 26.926 19.2253 26.9069 19.2061Z" fill="#00AC4E"/>
<path d="M20.6966 21.0521C20.6466 21.0521 20.5964 21.0475 20.5472 21.0386C20.3816 21.0083 20.2311 20.9293 20.1119 20.8101L15.6259 16.324C15.4796 16.1777 15.2851 16.0972 15.0783 16.0972C14.8714 16.0972 14.6769 16.1777 14.5306 16.324L10.0446 20.8101C9.92548 20.9293 9.77493 21.0083 9.60936 21.0386C9.51113 21.0564 9.40893 21.0564 9.31066 21.0386C9.14508 21.0083 8.99458 20.9293 8.87538 20.8101L8.42241 20.3572C8.29645 20.2313 8.21591 20.0717 8.18949 19.8958C8.15071 19.6372 8.23779 19.3725 8.42241 19.1879L14.4937 13.1167C14.6498 12.9605 14.8575 12.8745 15.0783 12.8745C15.2991 12.8745 15.5068 12.9605 15.6629 13.1167L19.4358 16.8896L21.4469 14.8786C21.603 14.7224 21.8106 14.6364 22.0315 14.6364C22.2524 14.6364 22.46 14.7224 22.6161 14.8786L26.9254 19.1879C26.9444 19.207 26.9632 19.2276 26.981 19.2491C27.2513 19.579 27.2273 20.0553 26.9254 20.3572L26.4725 20.8101C26.4203 20.8624 26.3611 20.9075 26.2965 20.9443C26.1726 21.0148 26.0314 21.0521 25.8881 21.0521C25.8881 21.0521 25.8881 21.0521 25.8881 21.0521C25.829 21.0521 25.7699 21.0458 25.7123 21.0333C25.5571 20.9997 25.4157 20.9226 25.3032 20.8101L22.0315 17.5384L21.0582 18.5119L21.7343 19.188C21.9188 19.3725 22.0059 19.6372 21.9671 19.8959C21.9407 20.0717 21.8602 20.2312 21.7343 20.3572L21.2813 20.8101C21.1621 20.9293 21.0116 21.0084 20.846 21.0386C20.7968 21.0475 20.7465 21.0521 20.6966 21.0521ZM15.0783 16.0449C15.2991 16.0449 15.5068 16.1309 15.6629 16.287L20.149 20.7731C20.2607 20.8848 20.4016 20.9587 20.5567 20.9871C20.6487 21.0039 20.7445 21.0039 20.8365 20.9871C20.9916 20.9587 21.1326 20.8848 21.2442 20.7731L21.6972 20.3202C21.8152 20.2021 21.8906 20.0527 21.9153 19.888C21.9516 19.6457 21.8701 19.3978 21.6972 19.2249L20.9841 18.5118L22.0314 17.4643L25.3402 20.7731C25.4456 20.8784 25.5781 20.9507 25.7234 20.9821C25.9085 21.0221 26.1069 20.9919 26.2706 20.8987C26.3311 20.8643 26.3867 20.822 26.4355 20.7731L26.8884 20.3202C27.1712 20.0374 27.1936 19.5912 26.9405 19.2823C26.9238 19.2621 26.9063 19.2427 26.8884 19.2249L22.5791 14.9155C22.4329 14.7692 22.2384 14.6887 22.0315 14.6887C21.8246 14.6887 21.6301 14.7692 21.4839 14.9155L19.4358 16.9635L15.6259 13.1536C15.4797 13.0073 15.2852 12.9268 15.0783 12.9268C14.8715 12.9268 14.677 13.0073 14.5307 13.1536L8.45946 19.2249C8.28651 19.3978 8.20498 19.6457 8.24135 19.888C8.26605 20.0528 8.34151 20.2022 8.45946 20.3202L8.91243 20.7731C9.0241 20.8848 9.16507 20.9587 9.32013 20.9871C9.41223 21.0039 9.50799 21.0039 9.60004 20.9871C9.7551 20.9587 9.89612 20.8848 10.0077 20.7731L14.4937 16.287C14.6498 16.1309 14.8575 16.0449 15.0783 16.0449Z" fill="#00AC4E"/>
<path d="M26.3434 8.03195C25.9942 7.89474 25.6142 7.81934 25.2171 7.81934C23.5137 7.81934 22.1279 9.20514 22.1279 10.9085C22.1279 12.6119 23.5137 13.9976 25.2171 13.9976C25.6143 13.9976 25.9943 13.9222 26.3434 13.785C26.7718 13.6166 27.1537 13.3552 27.4643 13.0257C27.986 12.4723 28.3062 11.7272 28.3062 10.9085C28.3062 10.0898 27.986 9.34459 27.4643 8.79126C27.1537 8.46179 26.7718 8.2003 26.3434 8.03195ZM25.2169 11.7558C24.749 11.7558 24.3696 11.3764 24.3696 10.9085C24.3696 10.4405 24.749 10.0612 25.2169 10.0612C25.6849 10.0612 26.0643 10.4406 26.0643 10.9085C26.0643 11.3764 25.6849 11.7558 25.2169 11.7558Z" fill="#00AC4E"/>
<path d="M25.217 14.0236C23.4992 14.0236 22.1017 12.6261 22.1017 10.9083C22.1017 9.19049 23.4992 7.79297 25.217 7.79297C25.6086 7.79297 25.9908 7.86513 26.3529 8.00742C26.7775 8.17424 27.1684 8.43903 27.4834 8.77311C28.0308 9.35386 28.3324 10.1121 28.3324 10.9083C28.3324 11.7044 28.0308 12.4627 27.4834 13.0434C27.1685 13.3775 26.7777 13.6422 26.3529 13.8092C25.9909 13.9514 25.6087 14.0236 25.217 14.0236ZM25.217 7.8453C23.5281 7.8453 22.154 9.21932 22.154 10.9083C22.154 12.5972 23.5281 13.9712 25.217 13.9712C25.6021 13.9712 25.9778 13.9003 26.3338 13.7604C26.7514 13.5963 27.1357 13.336 27.4452 13.0075C27.9835 12.4365 28.28 11.691 28.28 10.9083C28.28 10.1255 27.9835 9.37998 27.4452 8.80901C27.1356 8.48053 26.7513 8.22019 26.3338 8.05614C25.9778 7.91626 25.6021 7.8453 25.217 7.8453ZM25.2169 11.7818C24.7353 11.7818 24.3435 11.39 24.3435 10.9083C24.3435 10.4267 24.7353 10.0349 25.2169 10.0349C25.6986 10.0349 26.0905 10.4267 26.0905 10.9083C26.0905 11.39 25.6986 11.7818 25.2169 11.7818ZM25.2169 10.0872C24.7642 10.0872 24.3958 10.4555 24.3958 10.9083C24.3958 11.3611 24.7642 11.7294 25.2169 11.7294C25.6698 11.7294 26.0382 11.361 26.0382 10.9083C26.0382 10.4555 25.6698 10.0872 25.2169 10.0872Z" fill="#00AC4E"/>
</svg>
