<svg width="12" height="12" viewBox="0 0 12 12" xmlns="http://www.w3.org/2000/svg">
<path clip-rule="evenodd" d="M9.27497 11.1154C9.18574 11.1154 9.09594 11.0945 9.01348 11.0516L6.1337 9.54705L3.25449 11.0516C3.0636 11.1504 2.83317 11.1335 2.66035 11.007C2.4864 10.8805 2.39999 10.6664 2.4367 10.4546L2.9851 7.2761L0.658233 5.02548C0.503485 4.87581 0.447573 4.65103 0.513651 4.44546C0.57973 4.24101 0.756503 4.09134 0.969988 4.06085L4.18919 3.59321L5.62823 0.69819C5.81913 0.314145 6.44885 0.314145 6.63974 0.69819L8.07878 3.59321L11.298 4.06085C11.5115 4.09134 11.6882 4.24101 11.7543 4.44546C11.8204 4.65103 11.7645 4.87581 11.6097 5.02548L9.28288 7.2761L9.83127 10.4546C9.86798 10.6664 9.78101 10.8805 9.60762 11.007C9.50935 11.0793 9.39244 11.1154 9.27497 11.1154Z" fill="#EBEBEB"/>
</svg>
