<svg width="12" height="12" viewBox="0 0 12 12" xmlns="http://www.w3.org/2000/svg">
<path clip-rule="evenodd" d="M9.20173 11.1154C9.11249 11.1154 9.0227 11.0945 8.94024 11.0516L6.06046 9.54705L3.18125 11.0516C2.99036 11.1504 2.75993 11.1335 2.58711 11.007C2.41316 10.8805 2.32675 10.6664 2.36346 10.4546L2.91185 7.2761L0.584991 5.02548C0.430243 4.87581 0.374331 4.65103 0.440409 4.44546C0.506487 4.24101 0.683261 4.09134 0.896745 4.06085L4.11595 3.59321L5.55499 0.69819C5.74588 0.314145 6.37561 0.314145 6.5665 0.69819L8.00554 3.59321L11.2247 4.06085C11.4382 4.09134 11.615 4.24101 11.6811 4.44546C11.7472 4.65103 11.6912 4.87581 11.5365 5.02548L9.20963 7.2761L9.75803 10.4546C9.79474 10.6664 9.70776 10.8805 9.53438 11.007C9.43611 11.0793 9.3192 11.1154 9.20173 11.1154Z" fill="#00AC4E"/>
</svg>
